<svg width="63" height="49" viewBox="0 0 63 49" fill="none" xmlns="http://www.w3.org/2000/svg">
<path d="M25.3039 6.99454H41.125C42.8695 6.99454 44.2531 8.31797 44.2531 10.0023C44.2531 11.6867 42.8695 13.0102 41.125 13.0102H34.0566L31.9716 16.1287L25.3039 6.99454Z" fill="white"/>
<path d="M47.6219 4.8289C45.6969 2.06171 41.6062 2.06171 39.6812 4.8289L37.7563 7.59609H41.7266C42.9898 7.59609 44.1328 8.49843 44.2531 9.76171C44.3734 11.2055 43.2305 12.4086 41.8469 12.4086H34.3273L31.5 16.3789L36.3727 23.2969V41.4039C36.3727 44.0508 34.207 46.2164 31.5 46.2164H36.3727H55.8031C58.5102 46.2164 60.6758 44.0508 60.6758 41.4039V23.2969L47.6219 4.8289Z" fill="#E4CAA6"/>
<path d="M60.6758 34.7867C60.6758 37.4336 58.5102 39.5992 55.8031 39.5992H36.3727V41.4039C36.3727 44.0508 34.207 46.2164 31.5 46.2164H36.3727H55.8031C58.5102 46.2164 60.6758 44.0508 60.6758 41.4039V34.7867" fill="#B6A285"/>
<path d="M31.5 46.2766H7.19688C4.48984 46.2766 2.32422 44.1103 2.32422 41.4641V23.2969L15.3781 4.8289C17.3031 2.06171 21.3938 2.06171 23.3188 4.8289L36.3727 23.2969V41.4039C36.3727 44.1109 34.207 46.2766 31.5 46.2766Z" fill="#FBE5CD"/>
<path d="M31.5 48.0813H7.19688C3.52734 48.0813 0.519531 45.1336 0.519531 41.4641V23.2969C0.519531 22.9359 0.639844 22.575 0.820312 22.2742L13.8742 3.80626C15.1375 2.06173 17.1828 0.978912 19.3484 0.978912C21.5141 0.978912 23.5594 2.06173 24.8227 3.80626L37.8766 22.2742C38.1172 22.575 38.1773 22.9359 38.1773 23.2969V41.4039C38.1773 45.0734 35.1695 48.0813 31.5 48.0813ZM4.12891 23.8984V41.4641C4.12891 43.1484 5.5125 44.4719 7.19688 44.4719H31.5C33.1844 44.4719 34.568 43.0883 34.568 41.4641V23.8984L21.875 5.85157C21.2734 5.00938 20.3711 4.52813 19.3484 4.52813C18.3258 4.52813 17.4234 5.00938 16.8219 5.85157L4.12891 23.8984Z" fill="#454B54"/>
<path d="M55.8031 48.0812H31.9813C30.9586 48.0812 30.1766 47.2992 30.1766 46.2766C30.1766 45.2539 30.9586 44.4719 31.9813 44.4719H55.8031C57.4875 44.4719 58.8711 43.0883 58.8711 41.4641V23.8984L46.1781 5.85156C45.5766 5.00937 44.6742 4.52812 43.6516 4.52812C42.6289 4.52812 41.7266 5.00937 41.125 5.85156L39.6813 7.89687C39.0797 8.6789 37.9969 8.91953 37.1553 8.31797C36.3131 7.7164 36.1326 6.63359 36.7342 5.7914L38.1774 3.74609C39.4412 2.00156 41.4859 0.918747 43.6522 0.918747C45.8178 0.918747 47.8631 2.00156 49.1264 3.74609L62.1797 22.2742C62.4203 22.575 62.4805 22.9359 62.4805 23.2969V41.4039C62.4805 45.0734 59.4727 48.0812 55.8031 48.0812Z" fill="#454B54"/>
<path d="M60.6758 25.1016H36.3727C35.3506 25.1016 34.568 24.3195 34.568 23.2969C34.568 22.2742 35.3506 21.4922 36.3727 21.4922H60.6758C61.6985 21.4922 62.4805 22.2742 62.4805 23.2969C62.4805 24.3195 61.6985 25.1016 60.6758 25.1016Z" fill="#454B54"/>
<path d="M19.3484 13.0102C21.0096 13.0102 22.3563 11.6635 22.3563 10.0023C22.3563 8.34118 21.0096 6.99454 19.3484 6.99454C17.6873 6.99454 16.3406 8.34118 16.3406 10.0023C16.3406 11.6635 17.6873 13.0102 19.3484 13.0102Z" fill="white"/>
<path d="M31.5 18.1836C31.139 18.1836 30.7781 18.0633 30.4773 17.8828C29.6351 17.3414 29.4547 16.1984 30.0562 15.3562L32.4625 11.9273C32.824 11.4461 33.3648 11.1453 33.9664 11.1453H41.125C41.8469 11.1453 42.4484 10.6039 42.4484 9.94218C42.4484 9.28047 41.8469 8.73906 41.125 8.73906H31.3195C30.2969 8.73906 29.5148 7.95703 29.5148 6.93437C29.5148 5.91172 30.2969 5.12968 31.3195 5.12968H41.125C43.832 5.12968 46.0578 7.29531 46.0578 9.94218C46.0578 12.5891 43.832 14.7547 41.125 14.7547H34.8086L32.9437 17.4016C32.643 17.943 32.0414 18.1836 31.5 18.1836Z" fill="#454B54"/>
<g clip-path="url(#clip0)">
<path d="M25.8861 19.94C23.2863 17.2927 19.0245 17.1117 16.3849 19.5367L11.7493 23.7968C11.122 24.3664 10.6199 25.0623 10.2749 25.8399C9.9299 26.6176 9.74969 27.4599 9.74576 28.313C9.73801 29.7503 10.2054 31.1507 11.0739 32.2925C10.7457 33.0539 10.5741 33.875 10.5693 34.7063C10.5667 35.5764 10.7363 36.4388 11.068 37.243C11.3997 38.0472 11.8869 38.7769 12.5011 39.3895C15.1013 42.037 19.3632 42.2176 22.0023 39.7927L26.6379 35.5327C27.2652 34.9631 27.7674 34.2672 28.1124 33.4896C28.4574 32.7119 28.6376 31.8696 28.6414 31.0164C28.6492 29.5792 28.1819 28.1788 27.3137 27.0368C27.6418 26.2755 27.8133 25.4544 27.8179 24.6231C27.8206 23.753 27.6512 22.8906 27.3194 22.0864C26.9877 21.2822 26.5004 20.5524 25.8862 19.94" fill="#FF3E00"/>
<path d="M19.1445 38.5322C18.3609 38.8897 17.4867 38.9955 16.6399 38.8352C15.7931 38.675 15.0146 38.2564 14.4094 37.636C14.04 37.2677 13.747 36.8289 13.5475 36.3453C13.348 35.8616 13.246 35.343 13.2476 34.8197C13.249 34.6478 13.2622 34.4762 13.2872 34.3062L13.3331 33.9866L13.6346 34.1387C14.331 34.49 15.0813 34.719 15.8532 34.8157L16.0573 34.8415L16.0732 35.0401C16.0976 35.3222 16.2201 35.5868 16.4191 35.7871C16.6012 35.974 16.8356 36.1001 17.0906 36.1485C17.3456 36.1969 17.6088 36.1651 17.8448 36.0576C17.9529 36.0074 18.0527 35.9407 18.1406 35.8599L22.7764 31.6003C22.89 31.497 22.981 31.3709 23.0436 31.2301C23.1061 31.0892 23.1388 30.9366 23.1397 30.782C23.14 30.6243 23.1092 30.4681 23.0491 30.3223C22.989 30.1766 22.9007 30.0443 22.7895 29.9332C22.6073 29.7462 22.3728 29.6201 22.1178 29.5717C21.8627 29.5233 21.5993 29.555 21.3632 29.6625C21.2553 29.7127 21.1557 29.7793 21.0678 29.86L19.2989 31.4859C19.0079 31.7527 18.6781 31.9729 18.3209 32.1389C17.5373 32.4964 16.6631 32.6021 15.8163 32.4419C14.9696 32.2816 14.191 31.8631 13.5859 31.2427C13.2165 30.8744 12.9234 30.4356 12.7239 29.9519C12.5244 29.4683 12.4225 28.9497 12.4241 28.4264C12.4264 27.9134 12.5348 27.4069 12.7423 26.9393C12.9498 26.4717 13.2518 26.0533 13.629 25.7109L18.2643 21.451C18.5554 21.1838 18.8854 20.9634 19.2429 20.7973C20.0265 20.4398 20.9007 20.334 21.7475 20.4943C22.5942 20.6545 23.3728 21.0731 23.9779 21.6934C24.3473 22.0618 24.6403 22.5006 24.8399 22.9842C25.0394 23.4678 25.1413 23.9865 25.1398 24.5097C25.1382 24.6817 25.125 24.8533 25.1002 25.0233L25.0543 25.3429L24.7529 25.1911C24.0565 24.8395 23.3061 24.6104 22.5342 24.5137L22.33 24.4878L22.3141 24.2892C22.2895 24.0072 22.167 23.7426 21.9682 23.5422C21.7861 23.3553 21.5517 23.2292 21.2967 23.1808C21.0418 23.1325 20.7785 23.1642 20.5425 23.2718C20.4344 23.322 20.3346 23.3886 20.2467 23.4694L15.6109 27.7292C15.4973 27.8324 15.4064 27.9584 15.3439 28.0993C15.2814 28.2401 15.2487 28.3927 15.248 28.5472C15.2475 28.7049 15.2782 28.8612 15.3383 29.007C15.3983 29.1528 15.4866 29.2851 15.5978 29.3962C15.78 29.5831 16.0145 29.7093 16.2696 29.7577C16.5246 29.8061 16.788 29.7744 17.0241 29.6669C17.1321 29.6166 17.2319 29.55 17.3199 29.4692L19.0886 27.8439C19.3794 27.5768 19.7092 27.3565 20.0664 27.1905C20.85 26.833 21.7242 26.7272 22.571 26.8875C23.4178 27.0477 24.1963 27.4663 24.8014 28.0867C25.1708 28.455 25.4639 28.8938 25.6634 29.3774C25.8629 29.861 25.9649 30.3797 25.9633 30.9029C25.9609 31.416 25.8525 31.9225 25.645 32.3902C25.4375 32.8578 25.1356 33.2763 24.7584 33.6189L20.123 37.8785C19.832 38.1457 19.5019 38.3661 19.1444 38.5322" fill="white"/>
</g>
<defs>
<clipPath id="clip0">
<rect width="21.7163" height="26.2405" fill="white" transform="translate(6.25885 18.5863) rotate(-9.80992)"/>
</clipPath>
</defs>
</svg>
